<svg xmlns="http://www.w3.org/2000/svg" height="48" width="48">
	<style type="text/css">.icon-canvas-transparent{opacity:0;fill:#F6F6F6;} .icon-vs-out{opacity:0;fill:#F6F6F6;} .icon-vs-bg{fill:#656565;} .icon-vs-fg{fill:#F0EFF1;}</style>
	<path class="icon-vs-fg" d="M32 22q.85 0 1.425-.575Q34 20.85 34 20q0-.85-.575-1.425Q32.85 18 32 18q-.85 0-1.425.575Q30 19.15 30 20q0 .85.575 1.425Q31.15 22 32 22Zm-16-5h10v-3H16ZM9 42q-1.7-5.7-3.35-11.375Q4 24.95 4 19q0-4.6 3.2-7.8T15 8h10q1.45-1.9 3.525-2.95Q30.6 4 33 4q1.25 0 2.125.875T36 7q0 .3-.075.6t-.175.55q-.2.55-.375 1.125T35.1 10.45L39.65 15H44v13.95l-5.65 1.85L35 42H24v-4h-4v4Zm2.25-3H17v-4h10v4h5.75l3.15-10.5 5.1-1.75V18h-2.6L32 11.6q.05-1.25.325-2.425Q32.6 8 32.9 6.8q-1.9.5-3.6 1.475-1.7.975-2.6 2.725H15q-3.3 0-5.65 2.35Q7 15.7 7 19q0 5.15 1.45 10.075Q9.9 34 11.25 39ZM24 22.9Z"/>
</svg>