<svg xmlns="http://www.w3.org/2000/svg" height="48" width="48" viewBox="0 -960 960 960">
	<style type="text/css">.icon-canvas-transparent{opacity:0;fill:#F6F6F6;} .icon-vs-out{opacity:0;fill:#F6F6F6;} .icon-vs-bg{fill:#656565;} .icon-vs-fg{fill:#F0EFF1;}</style>
	<path class="icon-vs-fg" d="M120-80v-60h100v-30h-60v-60h60v-30H120v-60h160v90l-30 30 30 30v90H120Zm0-280v-150h100v-30H120v-60h160v150H180v30h100v60H120Zm60-280v-180h-60v-60h120v240h-60Zm189 431v-60h471v60H369Zm0-243v-60h471v60H369Zm0-243v-60h471v60H369Z"/>
</svg>